<?xml version="1.0" encoding="utf-8" standalone="no"?>
<!DOCTYPE svg PUBLIC "-//W3C//DTD SVG 1.1//EN"
  "http://www.w3.org/Graphics/SVG/1.1/DTD/svg11.dtd">
<svg xmlns:xlink="http://www.w3.org/1999/xlink" width="648pt" height="360pt" viewBox="0 0 648 360" xmlns="http://www.w3.org/2000/svg" version="1.1">
 <metadata>
  <rdf:RDF xmlns:dc="http://purl.org/dc/elements/1.1/" xmlns:cc="http://creativecommons.org/ns#" xmlns:rdf="http://www.w3.org/1999/02/22-rdf-syntax-ns#">
   <cc:Work>
    <dc:type rdf:resource="http://purl.org/dc/dcmitype/StillImage"/>
    <dc:date>2026-09-08T10:50:50.573130</dc:date>
    <dc:format>image/svg+xml</dc:format>
    <dc:creator>
     <cc:Agent>
      <dc:title>Matplotlib v3.11.1, https://matplotlib.org/</dc:title>
     </cc:Agent>
    </dc:creator>
   </cc:Work>
  </rdf:RDF>
 </metadata>
 <defs>
  <style type="text/css">*{stroke-linejoin: round; stroke-linecap: butt}</style>
 </defs>
 <g id="figure_1">
  <g id="patch_1">
   <path d="M 0 360 
L 648 360 
L 648 0 
L 0 0 
z
" style="fill: #ffffff"/>
  </g>
  <g id="axes_1">
   <g id="patch_2">
    <path d="M 42.12 122.902031 
L 217.512 122.902031 
L 217.512 51.779813 
L 42.12 51.779813 
z
" clip-path="url(#pcc10ce72fa)" style="fill: #deebf7; stroke: #1f4e79; stroke-width: 1.4; stroke-linejoin: miter"/>
   </g>
   <g id="patch_3">
    <path d="M 236.304 122.902031 
L 411.696 122.902031 
L 411.696 51.779813 
L 236.304 51.779813 
z
" clip-path="url(#pcc10ce72fa)" style="fill: #deebf7; stroke: #1f4e79; stroke-width: 1.4; stroke-linejoin: miter"/>
   </g>
   <g id="patch_4">
    <path d="M 430.488 122.902031 
L 605.88 122.902031 
L 605.88 51.779813 
L 430.488 51.779813 
z
" clip-path="url(#pcc10ce72fa)" style="fill: #deebf7; stroke: #1f4e79; stroke-width: 1.4; stroke-linejoin: miter"/>
   </g>
   <g id="patch_5">
    <path d="M 136.08 226.352531 
L 311.472 226.352531 
L 311.472 155.230313 
L 136.08 155.230313 
z
" clip-path="url(#pcc10ce72fa)" style="fill: #deebf7; stroke: #1f4e79; stroke-width: 1.4; stroke-linejoin: miter"/>
   </g>
   <g id="patch_6">
    <path d="M 336.528 226.352531 
L 511.92 226.352531 
L 511.92 155.230313 
L 336.528 155.230313 
z
" clip-path="url(#pcc10ce72fa)" style="fill: #deebf7; stroke: #1f4e79; stroke-width: 1.4; stroke-linejoin: miter"/>
   </g>
   <g id="patch_7">
    <path d="M 136.08 323.337375 
L 511.92 323.337375 
L 511.92 258.680813 
L 136.08 258.680813 
z
" clip-path="url(#pcc10ce72fa)" style="fill: #deebf7; stroke: #1f4e79; stroke-width: 1.4; stroke-linejoin: miter"/>
   </g>
   <g id="text_1">
    <!-- Delivery -->
    <g transform="translate(111.136078 78.876703) scale(0.09 -0.09)">
     <defs>
      <path id="DejaVuSans-27" d="M 1259 4147 
L 1259 519 
L 2022 519 
Q 2988 519 3436 956 
Q 3884 1394 3884 2338 
Q 3884 3275 3436 3711 
Q 2988 4147 2022 4147 
L 1259 4147 
z
M 628 4666 
L 1925 4666 
Q 3281 4666 3915 4102 
Q 4550 3538 4550 2338 
Q 4550 1131 3912 565 
Q 3275 0 1925 0 
L 628 0 
L 628 4666 
z
" transform="scale(0.015625)"/>
      <path id="DejaVuSans-48" d="M 3597 1894 
L 3597 1613 
L 953 1613 
Q 991 1019 1311 708 
Q 1631 397 2203 397 
Q 2534 397 2845 478 
Q 3156 559 3463 722 
L 3463 178 
Q 3153 47 2828 -22 
Q 2503 -91 2169 -91 
Q 1331 -91 842 396 
Q 353 884 353 1716 
Q 353 2575 817 3079 
Q 1281 3584 2069 3584 
Q 2775 3584 3186 3129 
Q 3597 2675 3597 1894 
z
M 3022 2063 
Q 3016 2534 2758 2815 
Q 2500 3097 2075 3097 
Q 1594 3097 1305 2825 
Q 1016 2553 972 2059 
L 3022 2063 
z
" transform="scale(0.015625)"/>
      <path id="DejaVuSans-4f" d="M 603 4863 
L 1178 4863 
L 1178 0 
L 603 0 
L 603 4863 
z
" transform="scale(0.015625)"/>
      <path id="DejaVuSans-4c" d="M 603 3500 
L 1178 3500 
L 1178 0 
L 603 0 
L 603 3500 
z
M 603 4863 
L 1178 4863 
L 1178 4134 
L 603 4134 
L 603 4863 
z
" transform="scale(0.015625)"/>
      <path id="DejaVuSans-59" d="M 191 3500 
L 800 3500 
L 1894 563 
L 2988 3500 
L 3597 3500 
L 2284 0 
L 1503 0 
L 191 3500 
z
" transform="scale(0.015625)"/>
      <path id="DejaVuSans-55" d="M 2631 2963 
Q 2534 3019 2420 3045 
Q 2306 3072 2169 3072 
Q 1681 3072 1420 2755 
Q 1159 2438 1159 1844 
L 1159 0 
L 581 0 
L 581 3500 
L 1159 3500 
L 1159 2956 
Q 1341 3275 1631 3429 
Q 1922 3584 2338 3584 
Q 2397 3584 2469 3576 
Q 2541 3569 2628 3553 
L 2631 2963 
z
" transform="scale(0.015625)"/>
      <path id="DejaVuSans-5c" d="M 2059 -325 
Q 1816 -950 1584 -1140 
Q 1353 -1331 966 -1331 
L 506 -1331 
L 506 -850 
L 844 -850 
Q 1081 -850 1212 -737 
Q 1344 -625 1503 -206 
L 1606 56 
L 191 3500 
L 800 3500 
L 1894 763 
L 2988 3500 
L 3597 3500 
L 2059 -325 
z
" transform="scale(0.015625)"/>
     </defs>
     <use xlink:href="#DejaVuSans-27"/>
     <use xlink:href="#DejaVuSans-48" transform="translate(77 0)"/>
     <use xlink:href="#DejaVuSans-4f" transform="translate(138.53125 0)"/>
     <use xlink:href="#DejaVuSans-4c" transform="translate(166.3125 0)"/>
     <use xlink:href="#DejaVuSans-59" transform="translate(194.09375 0)"/>
     <use xlink:href="#DejaVuSans-48" transform="translate(253.28125 0)"/>
     <use xlink:href="#DejaVuSans-55" transform="translate(314.8125 0)"/>
     <use xlink:href="#DejaVuSans-5c" transform="translate(355.921875 0)"/>
    </g>
    <!-- liquid, ≤10 cP -->
    <g transform="translate(98.524828 89.679164) scale(0.09 -0.09)">
     <defs>
      <path id="DejaVuSans-54" d="M 947 1747 
Q 947 1113 1208 752 
Q 1469 391 1925 391 
Q 2381 391 2643 752 
Q 2906 1113 2906 1747 
Q 2906 2381 2643 2742 
Q 2381 3103 1925 3103 
Q 1469 3103 1208 2742 
Q 947 2381 947 1747 
z
M 2906 525 
Q 2725 213 2448 61 
Q 2172 -91 1784 -91 
Q 1150 -91 751 415 
Q 353 922 353 1747 
Q 353 2572 751 3078 
Q 1150 3584 1784 3584 
Q 2172 3584 2448 3432 
Q 2725 3281 2906 2969 
L 2906 3500 
L 3481 3500 
L 3481 -1331 
L 2906 -1331 
L 2906 525 
z
" transform="scale(0.015625)"/>
      <path id="DejaVuSans-58" d="M 544 1381 
L 544 3500 
L 1119 3500 
L 1119 1403 
Q 1119 906 1312 657 
Q 1506 409 1894 409 
Q 2359 409 2629 706 
Q 2900 1003 2900 1516 
L 2900 3500 
L 3475 3500 
L 3475 0 
L 2900 0 
L 2900 538 
Q 2691 219 2414 64 
Q 2138 -91 1772 -91 
Q 1169 -91 856 284 
Q 544 659 544 1381 
z
M 1991 3584 
L 1991 3584 
z
" transform="scale(0.015625)"/>
      <path id="DejaVuSans-47" d="M 2906 2969 
L 2906 4863 
L 3481 4863 
L 3481 0 
L 2906 0 
L 2906 525 
Q 2725 213 2448 61 
Q 2172 -91 1784 -91 
Q 1150 -91 751 415 
Q 353 922 353 1747 
Q 353 2572 751 3078 
Q 1150 3584 1784 3584 
Q 2172 3584 2448 3432 
Q 2725 3281 2906 2969 
z
M 947 1747 
Q 947 1113 1208 752 
Q 1469 391 1925 391 
Q 2381 391 2643 752 
Q 2906 1113 2906 1747 
Q 2906 2381 2643 2742 
Q 2381 3103 1925 3103 
Q 1469 3103 1208 2742 
Q 947 2381 947 1747 
z
" transform="scale(0.015625)"/>
      <path id="DejaVuSans-f" d="M 750 794 
L 1409 794 
L 1409 256 
L 897 -744 
L 494 -744 
L 750 256 
L 750 794 
z
" transform="scale(0.015625)"/>
      <path id="DejaVuSans-3" transform="scale(0.015625)"/>
      <path id="DejaVuSans-cee" d="M 4684 3175 
L 1684 2309 
L 4684 1453 
L 4684 897 
L 678 2047 
L 678 2578 
L 4684 3725 
L 4684 3175 
z
M 678 531 
L 4684 531 
L 4684 0 
L 678 0 
L 678 531 
z
" transform="scale(0.015625)"/>
      <path id="DejaVuSans-14" d="M 794 531 
L 1825 531 
L 1825 4091 
L 703 3866 
L 703 4441 
L 1819 4666 
L 2450 4666 
L 2450 531 
L 3481 531 
L 3481 0 
L 794 0 
L 794 531 
z
" transform="scale(0.015625)"/>
      <path id="DejaVuSans-13" d="M 2034 4250 
Q 1547 4250 1301 3770 
Q 1056 3291 1056 2328 
Q 1056 1369 1301 889 
Q 1547 409 2034 409 
Q 2525 409 2770 889 
Q 3016 1369 3016 2328 
Q 3016 3291 2770 3770 
Q 2525 4250 2034 4250 
z
M 2034 4750 
Q 2819 4750 3233 4129 
Q 3647 3509 3647 2328 
Q 3647 1150 3233 529 
Q 2819 -91 2034 -91 
Q 1250 -91 836 529 
Q 422 1150 422 2328 
Q 422 3509 836 4129 
Q 1250 4750 2034 4750 
z
" transform="scale(0.015625)"/>
      <path id="DejaVuSans-46" d="M 3122 3366 
L 3122 2828 
Q 2878 2963 2633 3030 
Q 2388 3097 2138 3097 
Q 1578 3097 1268 2742 
Q 959 2388 959 1747 
Q 959 1106 1268 751 
Q 1578 397 2138 397 
Q 2388 397 2633 464 
Q 2878 531 3122 666 
L 3122 134 
Q 2881 22 2623 -34 
Q 2366 -91 2075 -91 
Q 1284 -91 818 406 
Q 353 903 353 1747 
Q 353 2603 823 3093 
Q 1294 3584 2113 3584 
Q 2378 3584 2631 3529 
Q 2884 3475 3122 3366 
z
" transform="scale(0.015625)"/>
      <path id="DejaVuSans-33" d="M 1259 4147 
L 1259 2394 
L 2053 2394 
Q 2494 2394 2734 2622 
Q 2975 2850 2975 3272 
Q 2975 3691 2734 3919 
Q 2494 4147 2053 4147 
L 1259 4147 
z
M 628 4666 
L 2053 4666 
Q 2838 4666 3239 4311 
Q 3641 3956 3641 3272 
Q 3641 2581 3239 2228 
Q 2838 1875 2053 1875 
L 1259 1875 
L 1259 0 
L 628 0 
L 628 4666 
z
" transform="scale(0.015625)"/>
     </defs>
     <use xlink:href="#DejaVuSans-4f"/>
     <use xlink:href="#DejaVuSans-4c" transform="translate(27.78125 0)"/>
     <use xlink:href="#DejaVuSans-54" transform="translate(55.5625 0)"/>
     <use xlink:href="#DejaVuSans-58" transform="translate(119.046875 0)"/>
     <use xlink:href="#DejaVuSans-4c" transform="translate(182.421875 0)"/>
     <use xlink:href="#DejaVuSans-47" transform="translate(210.203125 0)"/>
     <use xlink:href="#DejaVuSans-f" transform="translate(273.6875 0)"/>
     <use xlink:href="#DejaVuSans-3" transform="translate(305.46875 0)"/>
     <use xlink:href="#DejaVuSans-cee" transform="translate(337.25 0)"/>
     <use xlink:href="#DejaVuSans-14" transform="translate(421.046875 0)"/>
     <use xlink:href="#DejaVuSans-13" transform="translate(484.671875 0)"/>
     <use xlink:href="#DejaVuSans-3" transform="translate(548.296875 0)"/>
     <use xlink:href="#DejaVuSans-46" transform="translate(580.078125 0)"/>
     <use xlink:href="#DejaVuSans-33" transform="translate(635.0625 0)"/>
    </g>
    <!-- ≤150 °C, ≤10,000 psi -->
    <g transform="translate(80.375063 100.481625) scale(0.09 -0.09)">
     <defs>
      <path id="DejaVuSans-18" d="M 691 4666 
L 3169 4666 
L 3169 4134 
L 1269 4134 
L 1269 2991 
Q 1406 3038 1543 3061 
Q 1681 3084 1819 3084 
Q 2600 3084 3056 2656 
Q 3513 2228 3513 1497 
Q 3513 744 3044 326 
Q 2575 -91 1722 -91 
Q 1428 -91 1123 -41 
Q 819 9 494 109 
L 494 744 
Q 775 591 1075 516 
Q 1375 441 1709 441 
Q 2250 441 2565 725 
Q 2881 1009 2881 1497 
Q 2881 1984 2565 2268 
Q 2250 2553 1709 2553 
Q 1456 2553 1204 2497 
Q 953 2441 691 2322 
L 691 4666 
z
" transform="scale(0.015625)"/>
      <path id="DejaVuSans-72" d="M 1600 4347 
Q 1350 4347 1178 4173 
Q 1006 4000 1006 3750 
Q 1006 3503 1178 3333 
Q 1350 3163 1600 3163 
Q 1850 3163 2022 3333 
Q 2194 3503 2194 3750 
Q 2194 3997 2020 4172 
Q 1847 4347 1600 4347 
z
M 1600 4750 
Q 1800 4750 1984 4673 
Q 2169 4597 2303 4453 
Q 2447 4313 2519 4134 
Q 2591 3956 2591 3750 
Q 2591 3338 2302 3052 
Q 2013 2766 1594 2766 
Q 1172 2766 890 3047 
Q 609 3328 609 3750 
Q 609 4169 896 4459 
Q 1184 4750 1600 4750 
z
" transform="scale(0.015625)"/>
      <path id="DejaVuSans-26" d="M 4122 4306 
L 4122 3641 
Q 3803 3938 3442 4084 
Q 3081 4231 2675 4231 
Q 1875 4231 1450 3742 
Q 1025 3253 1025 2328 
Q 1025 1406 1450 917 
Q 1875 428 2675 428 
Q 3081 428 3442 575 
Q 3803 722 4122 1019 
L 4122 359 
Q 3791 134 3420 21 
Q 3050 -91 2638 -91 
Q 1578 -91 968 557 
Q 359 1206 359 2328 
Q 359 3453 968 4101 
Q 1578 4750 2638 4750 
Q 3056 4750 3426 4639 
Q 3797 4528 4122 4306 
z
" transform="scale(0.015625)"/>
      <path id="DejaVuSans-53" d="M 1159 525 
L 1159 -1331 
L 581 -1331 
L 581 3500 
L 1159 3500 
L 1159 2969 
Q 1341 3281 1617 3432 
Q 1894 3584 2278 3584 
Q 2916 3584 3314 3078 
Q 3713 2572 3713 1747 
Q 3713 922 3314 415 
Q 2916 -91 2278 -91 
Q 1894 -91 1617 61 
Q 1341 213 1159 525 
z
M 3116 1747 
Q 3116 2381 2855 2742 
Q 2594 3103 2138 3103 
Q 1681 3103 1420 2742 
Q 1159 2381 1159 1747 
Q 1159 1113 1420 752 
Q 1681 391 2138 391 
Q 2594 391 2855 752 
Q 3116 1113 3116 1747 
z
" transform="scale(0.015625)"/>
      <path id="DejaVuSans-56" d="M 2834 3397 
L 2834 2853 
Q 2591 2978 2328 3040 
Q 2066 3103 1784 3103 
Q 1356 3103 1142 2972 
Q 928 2841 928 2578 
Q 928 2378 1081 2264 
Q 1234 2150 1697 2047 
L 1894 2003 
Q 2506 1872 2764 1633 
Q 3022 1394 3022 966 
Q 3022 478 2636 193 
Q 2250 -91 1575 -91 
Q 1294 -91 989 -36 
Q 684 19 347 128 
L 347 722 
Q 666 556 975 473 
Q 1284 391 1588 391 
Q 1994 391 2212 530 
Q 2431 669 2431 922 
Q 2431 1156 2273 1281 
Q 2116 1406 1581 1522 
L 1381 1569 
Q 847 1681 609 1914 
Q 372 2147 372 2553 
Q 372 3047 722 3315 
Q 1072 3584 1716 3584 
Q 2034 3584 2315 3537 
Q 2597 3491 2834 3397 
z
" transform="scale(0.015625)"/>
     </defs>
     <use xlink:href="#DejaVuSans-cee"/>
     <use xlink:href="#DejaVuSans-14" transform="translate(83.796875 0)"/>
     <use xlink:href="#DejaVuSans-18" transform="translate(147.421875 0)"/>
     <use xlink:href="#DejaVuSans-13" transform="translate(211.046875 0)"/>
     <use xlink:href="#DejaVuSans-3" transform="translate(274.671875 0)"/>
     <use xlink:href="#DejaVuSans-72" transform="translate(306.453125 0)"/>
     <use xlink:href="#DejaVuSans-26" transform="translate(356.453125 0)"/>
     <use xlink:href="#DejaVuSans-f" transform="translate(426.28125 0)"/>
     <use xlink:href="#DejaVuSans-3" transform="translate(458.0625 0)"/>
     <use xlink:href="#DejaVuSans-cee" transform="translate(489.84375 0)"/>
     <use xlink:href="#DejaVuSans-14" transform="translate(573.640625 0)"/>
     <use xlink:href="#DejaVuSans-13" transform="translate(637.265625 0)"/>
     <use xlink:href="#DejaVuSans-f" transform="translate(700.890625 0)"/>
     <use xlink:href="#DejaVuSans-13" transform="translate(732.671875 0)"/>
     <use xlink:href="#DejaVuSans-13" transform="translate(796.296875 0)"/>
     <use xlink:href="#DejaVuSans-13" transform="translate(859.921875 0)"/>
     <use xlink:href="#DejaVuSans-3" transform="translate(923.546875 0)"/>
     <use xlink:href="#DejaVuSans-53" transform="translate(955.328125 0)"/>
     <use xlink:href="#DejaVuSans-56" transform="translate(1018.8125 0)"/>
     <use xlink:href="#DejaVuSans-4c" transform="translate(1070.90625 0)"/>
    </g>
   </g>
   <g id="text_2">
    <!-- Transformation -->
    <g transform="translate(290.240156 78.876703) scale(0.09 -0.09)">
     <defs>
      <path id="DejaVuSans-37" d="M -19 4666 
L 3928 4666 
L 3928 4134 
L 2272 4134 
L 2272 0 
L 1638 0 
L 1638 4134 
L -19 4134 
L -19 4666 
z
" transform="scale(0.015625)"/>
      <path id="DejaVuSans-44" d="M 2194 1759 
Q 1497 1759 1228 1600 
Q 959 1441 959 1056 
Q 959 750 1161 570 
Q 1363 391 1709 391 
Q 2188 391 2477 730 
Q 2766 1069 2766 1631 
L 2766 1759 
L 2194 1759 
z
M 3341 1997 
L 3341 0 
L 2766 0 
L 2766 531 
Q 2569 213 2275 61 
Q 1981 -91 1556 -91 
Q 1019 -91 701 211 
Q 384 513 384 1019 
Q 384 1609 779 1909 
Q 1175 2209 1959 2209 
L 2766 2209 
L 2766 2266 
Q 2766 2663 2505 2880 
Q 2244 3097 1772 3097 
Q 1472 3097 1187 3025 
Q 903 2953 641 2809 
L 641 3341 
Q 956 3463 1253 3523 
Q 1550 3584 1831 3584 
Q 2591 3584 2966 3190 
Q 3341 2797 3341 1997 
z
" transform="scale(0.015625)"/>
      <path id="DejaVuSans-51" d="M 3513 2113 
L 3513 0 
L 2938 0 
L 2938 2094 
Q 2938 2591 2744 2837 
Q 2550 3084 2163 3084 
Q 1697 3084 1428 2787 
Q 1159 2491 1159 1978 
L 1159 0 
L 581 0 
L 581 3500 
L 1159 3500 
L 1159 2956 
Q 1366 3272 1645 3428 
Q 1925 3584 2291 3584 
Q 2894 3584 3203 3211 
Q 3513 2838 3513 2113 
z
" transform="scale(0.015625)"/>
      <path id="DejaVuSans-49" d="M 2375 4863 
L 2375 4384 
L 1825 4384 
Q 1516 4384 1395 4259 
Q 1275 4134 1275 3809 
L 1275 3500 
L 2222 3500 
L 2222 3053 
L 1275 3053 
L 1275 0 
L 697 0 
L 697 3053 
L 147 3053 
L 147 3500 
L 697 3500 
L 697 3744 
Q 697 4328 969 4595 
Q 1241 4863 1831 4863 
L 2375 4863 
z
" transform="scale(0.015625)"/>
      <path id="DejaVuSans-52" d="M 1959 3097 
Q 1497 3097 1228 2736 
Q 959 2375 959 1747 
Q 959 1119 1226 758 
Q 1494 397 1959 397 
Q 2419 397 2687 759 
Q 2956 1122 2956 1747 
Q 2956 2369 2687 2733 
Q 2419 3097 1959 3097 
z
M 1959 3584 
Q 2709 3584 3137 3096 
Q 3566 2609 3566 1747 
Q 3566 888 3137 398 
Q 2709 -91 1959 -91 
Q 1206 -91 779 398 
Q 353 888 353 1747 
Q 353 2609 779 3096 
Q 1206 3584 1959 3584 
z
" transform="scale(0.015625)"/>
      <path id="DejaVuSans-50" d="M 3328 2828 
Q 3544 3216 3844 3400 
Q 4144 3584 4550 3584 
Q 5097 3584 5394 3201 
Q 5691 2819 5691 2113 
L 5691 0 
L 5113 0 
L 5113 2094 
Q 5113 2597 4934 2840 
Q 4756 3084 4391 3084 
Q 3944 3084 3684 2787 
Q 3425 2491 3425 1978 
L 3425 0 
L 2847 0 
L 2847 2094 
Q 2847 2600 2669 2842 
Q 2491 3084 2119 3084 
Q 1678 3084 1418 2786 
Q 1159 2488 1159 1978 
L 1159 0 
L 581 0 
L 581 3500 
L 1159 3500 
L 1159 2956 
Q 1356 3278 1631 3431 
Q 1906 3584 2284 3584 
Q 2666 3584 2933 3390 
Q 3200 3197 3328 2828 
z
" transform="scale(0.015625)"/>
      <path id="DejaVuSans-57" d="M 1172 4494 
L 1172 3500 
L 2356 3500 
L 2356 3053 
L 1172 3053 
L 1172 1153 
Q 1172 725 1289 603 
Q 1406 481 1766 481 
L 2356 481 
L 2356 0 
L 1766 0 
Q 1100 0 847 248 
Q 594 497 594 1153 
L 594 3053 
L 172 3053 
L 172 3500 
L 594 3500 
L 594 4494 
L 1172 4494 
z
" transform="scale(0.015625)"/>
     </defs>
     <use xlink:href="#DejaVuSans-37"/>
     <use xlink:href="#DejaVuSans-55" transform="translate(46.375 0)"/>
     <use xlink:href="#DejaVuSans-44" transform="translate(87.484375 0)"/>
     <use xlink:href="#DejaVuSans-51" transform="translate(148.765625 0)"/>
     <use xlink:href="#DejaVuSans-56" transform="translate(212.140625 0)"/>
     <use xlink:href="#DejaVuSans-49" transform="translate(264.234375 0)"/>
     <use xlink:href="#DejaVuSans-52" transform="translate(299.4375 0)"/>
     <use xlink:href="#DejaVuSans-55" transform="translate(360.625 0)"/>
     <use xlink:href="#DejaVuSans-50" transform="translate(399.984375 0)"/>
     <use xlink:href="#DejaVuSans-44" transform="translate(497.390625 0)"/>
     <use xlink:href="#DejaVuSans-57" transform="translate(558.671875 0)"/>
     <use xlink:href="#DejaVuSans-4c" transform="translate(597.875 0)"/>
     <use xlink:href="#DejaVuSans-52" transform="translate(625.65625 0)"/>
     <use xlink:href="#DejaVuSans-51" transform="translate(686.84375 0)"/>
    </g>
    <!-- controlled activation -->
    <g transform="translate(277.808906 89.679164) scale(0.09 -0.09)">
     <use xlink:href="#DejaVuSans-46"/>
     <use xlink:href="#DejaVuSans-52" transform="translate(54.984375 0)"/>
     <use xlink:href="#DejaVuSans-51" transform="translate(116.171875 0)"/>
     <use xlink:href="#DejaVuSans-57" transform="translate(179.546875 0)"/>
     <use xlink:href="#DejaVuSans-55" transform="translate(218.75 0)"/>
     <use xlink:href="#DejaVuSans-52" transform="translate(257.65625 0)"/>
     <use xlink:href="#DejaVuSans-4f" transform="translate(318.84375 0)"/>
     <use xlink:href="#DejaVuSans-4f" transform="translate(346.625 0)"/>
     <use xlink:href="#DejaVuSans-48" transform="translate(374.40625 0)"/>
     <use xlink:href="#DejaVuSans-47" transform="translate(435.9375 0)"/>
     <use xlink:href="#DejaVuSans-3" transform="translate(499.421875 0)"/>
     <use xlink:href="#DejaVuSans-44" transform="translate(531.203125 0)"/>
     <use xlink:href="#DejaVuSans-46" transform="translate(592.484375 0)"/>
     <use xlink:href="#DejaVuSans-57" transform="translate(647.46875 0)"/>
     <use xlink:href="#DejaVuSans-4c" transform="translate(686.671875 0)"/>
     <use xlink:href="#DejaVuSans-59" transform="translate(714.453125 0)"/>
     <use xlink:href="#DejaVuSans-44" transform="translate(773.640625 0)"/>
     <use xlink:href="#DejaVuSans-57" transform="translate(834.921875 0)"/>
     <use xlink:href="#DejaVuSans-4c" transform="translate(874.125 0)"/>
     <use xlink:href="#DejaVuSans-52" transform="translate(901.90625 0)"/>
     <use xlink:href="#DejaVuSans-51" transform="translate(963.09375 0)"/>
    </g>
    <!-- 25–75 min -->
    <g transform="translate(300.382031 100.481625) scale(0.09 -0.09)">
     <defs>
      <path id="DejaVuSans-15" d="M 1228 531 
L 3431 531 
L 3431 0 
L 469 0 
L 469 531 
Q 828 903 1448 1529 
Q 2069 2156 2228 2338 
Q 2531 2678 2651 2914 
Q 2772 3150 2772 3378 
Q 2772 3750 2511 3984 
Q 2250 4219 1831 4219 
Q 1534 4219 1204 4116 
Q 875 4013 500 3803 
L 500 4441 
Q 881 4594 1212 4672 
Q 1544 4750 1819 4750 
Q 2544 4750 2975 4387 
Q 3406 4025 3406 3419 
Q 3406 3131 3298 2873 
Q 3191 2616 2906 2266 
Q 2828 2175 2409 1742 
Q 1991 1309 1228 531 
z
" transform="scale(0.015625)"/>
      <path id="DejaVuSans-af5" d="M 313 1978 
L 2888 1978 
L 2888 1528 
L 313 1528 
L 313 1978 
z
" transform="scale(0.015625)"/>
      <path id="DejaVuSans-1a" d="M 525 4666 
L 3525 4666 
L 3525 4397 
L 1831 0 
L 1172 0 
L 2766 4134 
L 525 4134 
L 525 4666 
z
" transform="scale(0.015625)"/>
     </defs>
     <use xlink:href="#DejaVuSans-15"/>
     <use xlink:href="#DejaVuSans-18" transform="translate(63.625 0)"/>
     <use xlink:href="#DejaVuSans-af5" transform="translate(127.25 0)"/>
     <use xlink:href="#DejaVuSans-1a" transform="translate(177.25 0)"/>
     <use xlink:href="#DejaVuSans-18" transform="translate(240.875 0)"/>
     <use xlink:href="#DejaVuSans-3" transform="translate(304.5 0)"/>
     <use xlink:href="#DejaVuSans-50" transform="translate(336.28125 0)"/>
     <use xlink:href="#DejaVuSans-4c" transform="translate(433.6875 0)"/>
     <use xlink:href="#DejaVuSans-51" transform="translate(461.46875 0)"/>
    </g>
   </g>
   <g id="text_3">
    <!-- Particles -->
    <g transform="translate(499.212984 78.877055) scale(0.09 -0.09)">
     <use xlink:href="#DejaVuSans-33"/>
     <use xlink:href="#DejaVuSans-44" transform="translate(55.8125 0)"/>
     <use xlink:href="#DejaVuSans-55" transform="translate(117.09375 0)"/>
     <use xlink:href="#DejaVuSans-57" transform="translate(158.203125 0)"/>
     <use xlink:href="#DejaVuSans-4c" transform="translate(197.40625 0)"/>
     <use xlink:href="#DejaVuSans-46" transform="translate(225.1875 0)"/>
     <use xlink:href="#DejaVuSans-4f" transform="translate(280.171875 0)"/>
     <use xlink:href="#DejaVuSans-48" transform="translate(307.953125 0)"/>
     <use xlink:href="#DejaVuSans-56" transform="translate(369.484375 0)"/>
    </g>
    <!-- 70–600 μm -->
    <g transform="translate(492.941812 89.678813) scale(0.09 -0.09)">
     <defs>
      <path id="DejaVuSans-19" d="M 2113 2584 
Q 1688 2584 1439 2293 
Q 1191 2003 1191 1497 
Q 1191 994 1439 701 
Q 1688 409 2113 409 
Q 2538 409 2786 701 
Q 3034 994 3034 1497 
Q 3034 2003 2786 2293 
Q 2538 2584 2113 2584 
z
M 3366 4563 
L 3366 3988 
Q 3128 4100 2886 4159 
Q 2644 4219 2406 4219 
Q 1781 4219 1451 3797 
Q 1122 3375 1075 2522 
Q 1259 2794 1537 2939 
Q 1816 3084 2150 3084 
Q 2853 3084 3261 2657 
Q 3669 2231 3669 1497 
Q 3669 778 3244 343 
Q 2819 -91 2113 -91 
Q 1303 -91 875 529 
Q 447 1150 447 2328 
Q 447 3434 972 4092 
Q 1497 4750 2381 4750 
Q 2619 4750 2861 4703 
Q 3103 4656 3366 4563 
z
" transform="scale(0.015625)"/>
      <path id="DejaVuSans-350" d="M 544 -1331 
L 544 3500 
L 1119 3500 
L 1119 1325 
Q 1119 872 1334 640 
Q 1550 409 1972 409 
Q 2434 409 2667 671 
Q 2900 934 2900 1459 
L 2900 3500 
L 3475 3500 
L 3475 806 
Q 3475 619 3529 530 
Q 3584 441 3700 441 
Q 3728 441 3778 458 
Q 3828 475 3916 513 
L 3916 50 
Q 3788 -22 3673 -56 
Q 3559 -91 3450 -91 
Q 3234 -91 3106 31 
Q 2978 153 2931 403 
Q 2775 156 2548 32 
Q 2322 -91 2016 -91 
Q 1697 -91 1473 31 
Q 1250 153 1119 397 
L 1119 -1331 
L 544 -1331 
z
" transform="scale(0.015625)"/>
     </defs>
     <use xlink:href="#DejaVuSans-1a"/>
     <use xlink:href="#DejaVuSans-13" transform="translate(63.625 0)"/>
     <use xlink:href="#DejaVuSans-af5" transform="translate(127.25 0)"/>
     <use xlink:href="#DejaVuSans-19" transform="translate(177.25 0)"/>
     <use xlink:href="#DejaVuSans-13" transform="translate(240.875 0)"/>
     <use xlink:href="#DejaVuSans-13" transform="translate(304.5 0)"/>
     <use xlink:href="#DejaVuSans-3" transform="translate(368.125 0)"/>
     <use xlink:href="#DejaVuSans-350" transform="translate(399.90625 0)"/>
     <use xlink:href="#DejaVuSans-50" transform="translate(463.53125 0)"/>
    </g>
    <!-- spherical, discrete -->
    <g transform="translate(476.9415 100.481273) scale(0.09 -0.09)">
     <defs>
      <path id="DejaVuSans-4b" d="M 3513 2113 
L 3513 0 
L 2938 0 
L 2938 2094 
Q 2938 2591 2744 2837 
Q 2550 3084 2163 3084 
Q 1697 3084 1428 2787 
Q 1159 2491 1159 1978 
L 1159 0 
L 581 0 
L 581 4863 
L 1159 4863 
L 1159 2956 
Q 1366 3272 1645 3428 
Q 1925 3584 2291 3584 
Q 2894 3584 3203 3211 
Q 3513 2838 3513 2113 
z
" transform="scale(0.015625)"/>
     </defs>
     <use xlink:href="#DejaVuSans-56"/>
     <use xlink:href="#DejaVuSans-53" transform="translate(52.09375 0)"/>
     <use xlink:href="#DejaVuSans-4b" transform="translate(115.578125 0)"/>
     <use xlink:href="#DejaVuSans-48" transform="translate(178.953125 0)"/>
     <use xlink:href="#DejaVuSans-55" transform="translate(240.484375 0)"/>
     <use xlink:href="#DejaVuSans-4c" transform="translate(281.59375 0)"/>
     <use xlink:href="#DejaVuSans-46" transform="translate(309.375 0)"/>
     <use xlink:href="#DejaVuSans-44" transform="translate(364.359375 0)"/>
     <use xlink:href="#DejaVuSans-4f" transform="translate(425.640625 0)"/>
     <use xlink:href="#DejaVuSans-f" transform="translate(453.421875 0)"/>
     <use xlink:href="#DejaVuSans-3" transform="translate(485.203125 0)"/>
     <use xlink:href="#DejaVuSans-47" transform="translate(516.984375 0)"/>
     <use xlink:href="#DejaVuSans-4c" transform="translate(580.46875 0)"/>
     <use xlink:href="#DejaVuSans-56" transform="translate(608.25 0)"/>
     <use xlink:href="#DejaVuSans-46" transform="translate(660.34375 0)"/>
     <use xlink:href="#DejaVuSans-55" transform="translate(715.328125 0)"/>
     <use xlink:href="#DejaVuSans-48" transform="translate(754.234375 0)"/>
     <use xlink:href="#DejaVuSans-57" transform="translate(815.765625 0)"/>
     <use xlink:href="#DejaVuSans-48" transform="translate(854.96875 0)"/>
    </g>
   </g>
   <g id="text_4">
    <!-- Mechanics -->
    <g transform="translate(200.120063 182.327203) scale(0.09 -0.09)">
     <defs>
      <path id="DejaVuSans-30" d="M 628 4666 
L 1569 4666 
L 2759 1491 
L 3956 4666 
L 4897 4666 
L 4897 0 
L 4281 0 
L 4281 4097 
L 3078 897 
L 2444 897 
L 1241 4097 
L 1241 0 
L 628 0 
L 628 4666 
z
" transform="scale(0.015625)"/>
     </defs>
     <use xlink:href="#DejaVuSans-30"/>
     <use xlink:href="#DejaVuSans-48" transform="translate(86.28125 0)"/>
     <use xlink:href="#DejaVuSans-46" transform="translate(147.8125 0)"/>
     <use xlink:href="#DejaVuSans-4b" transform="translate(202.796875 0)"/>
     <use xlink:href="#DejaVuSans-44" transform="translate(266.171875 0)"/>
     <use xlink:href="#DejaVuSans-51" transform="translate(327.453125 0)"/>
     <use xlink:href="#DejaVuSans-4c" transform="translate(390.828125 0)"/>
     <use xlink:href="#DejaVuSans-46" transform="translate(418.609375 0)"/>
     <use xlink:href="#DejaVuSans-56" transform="translate(473.59375 0)"/>
    </g>
    <!-- 4,500–6,000 psi -->
    <g transform="translate(187.879359 193.129664) scale(0.09 -0.09)">
     <defs>
      <path id="DejaVuSans-17" d="M 2419 4116 
L 825 1625 
L 2419 1625 
L 2419 4116 
z
M 2253 4666 
L 3047 4666 
L 3047 1625 
L 3713 1625 
L 3713 1100 
L 3047 1100 
L 3047 0 
L 2419 0 
L 2419 1100 
L 313 1100 
L 313 1709 
L 2253 4666 
z
" transform="scale(0.015625)"/>
     </defs>
     <use xlink:href="#DejaVuSans-17"/>
     <use xlink:href="#DejaVuSans-f" transform="translate(63.625 0)"/>
     <use xlink:href="#DejaVuSans-18" transform="translate(95.40625 0)"/>
     <use xlink:href="#DejaVuSans-13" transform="translate(159.03125 0)"/>
     <use xlink:href="#DejaVuSans-13" transform="translate(222.65625 0)"/>
     <use xlink:href="#DejaVuSans-af5" transform="translate(286.28125 0)"/>
     <use xlink:href="#DejaVuSans-19" transform="translate(336.28125 0)"/>
     <use xlink:href="#DejaVuSans-f" transform="translate(399.90625 0)"/>
     <use xlink:href="#DejaVuSans-13" transform="translate(431.6875 0)"/>
     <use xlink:href="#DejaVuSans-13" transform="translate(495.3125 0)"/>
     <use xlink:href="#DejaVuSans-13" transform="translate(558.9375 0)"/>
     <use xlink:href="#DejaVuSans-3" transform="translate(622.5625 0)"/>
     <use xlink:href="#DejaVuSans-53" transform="translate(654.34375 0)"/>
     <use xlink:href="#DejaVuSans-56" transform="translate(717.828125 0)"/>
     <use xlink:href="#DejaVuSans-4c" transform="translate(769.921875 0)"/>
    </g>
    <!-- load-bearing -->
    <g transform="translate(195.342328 203.932125) scale(0.09 -0.09)">
     <defs>
      <path id="DejaVuSans-10" d="M 313 2009 
L 1997 2009 
L 1997 1497 
L 313 1497 
L 313 2009 
z
" transform="scale(0.015625)"/>
      <path id="DejaVuSans-45" d="M 3116 1747 
Q 3116 2381 2855 2742 
Q 2594 3103 2138 3103 
Q 1681 3103 1420 2742 
Q 1159 2381 1159 1747 
Q 1159 1113 1420 752 
Q 1681 391 2138 391 
Q 2594 391 2855 752 
Q 3116 1113 3116 1747 
z
M 1159 2969 
Q 1341 3281 1617 3432 
Q 1894 3584 2278 3584 
Q 2916 3584 3314 3078 
Q 3713 2572 3713 1747 
Q 3713 922 3314 415 
Q 2916 -91 2278 -91 
Q 1894 -91 1617 61 
Q 1341 213 1159 525 
L 1159 0 
L 581 0 
L 581 4863 
L 1159 4863 
L 1159 2969 
z
" transform="scale(0.015625)"/>
      <path id="DejaVuSans-4a" d="M 2906 1791 
Q 2906 2416 2648 2759 
Q 2391 3103 1925 3103 
Q 1463 3103 1205 2759 
Q 947 2416 947 1791 
Q 947 1169 1205 825 
Q 1463 481 1925 481 
Q 2391 481 2648 825 
Q 2906 1169 2906 1791 
z
M 3481 434 
Q 3481 -459 3084 -895 
Q 2688 -1331 1869 -1331 
Q 1566 -1331 1297 -1286 
Q 1028 -1241 775 -1147 
L 775 -588 
Q 1028 -725 1275 -790 
Q 1522 -856 1778 -856 
Q 2344 -856 2625 -561 
Q 2906 -266 2906 331 
L 2906 616 
Q 2728 306 2450 153 
Q 2172 0 1784 0 
Q 1141 0 747 490 
Q 353 981 353 1791 
Q 353 2603 747 3093 
Q 1141 3584 1784 3584 
Q 2172 3584 2450 3431 
Q 2728 3278 2906 2969 
L 2906 3500 
L 3481 3500 
L 3481 434 
z
" transform="scale(0.015625)"/>
     </defs>
     <use xlink:href="#DejaVuSans-4f"/>
     <use xlink:href="#DejaVuSans-52" transform="translate(27.78125 0)"/>
     <use xlink:href="#DejaVuSans-44" transform="translate(88.96875 0)"/>
     <use xlink:href="#DejaVuSans-47" transform="translate(150.25 0)"/>
     <use xlink:href="#DejaVuSans-10" transform="translate(213.734375 0)"/>
     <use xlink:href="#DejaVuSans-45" transform="translate(249.8125 0)"/>
     <use xlink:href="#DejaVuSans-48" transform="translate(313.296875 0)"/>
     <use xlink:href="#DejaVuSans-44" transform="translate(374.828125 0)"/>
     <use xlink:href="#DejaVuSans-55" transform="translate(436.109375 0)"/>
     <use xlink:href="#DejaVuSans-4c" transform="translate(477.21875 0)"/>
     <use xlink:href="#DejaVuSans-51" transform="translate(505 0)"/>
     <use xlink:href="#DejaVuSans-4a" transform="translate(568.375 0)"/>
    </g>
   </g>
   <g id="text_5">
    <!-- System flow -->
    <g transform="translate(396.745172 182.327203) scale(0.09 -0.09)">
     <defs>
      <path id="DejaVuSans-36" d="M 3425 4513 
L 3425 3897 
Q 3066 4069 2747 4153 
Q 2428 4238 2131 4238 
Q 1616 4238 1336 4038 
Q 1056 3838 1056 3469 
Q 1056 3159 1242 3001 
Q 1428 2844 1947 2747 
L 2328 2669 
Q 3034 2534 3370 2195 
Q 3706 1856 3706 1288 
Q 3706 609 3251 259 
Q 2797 -91 1919 -91 
Q 1588 -91 1214 -16 
Q 841 59 441 206 
L 441 856 
Q 825 641 1194 531 
Q 1563 422 1919 422 
Q 2459 422 2753 634 
Q 3047 847 3047 1241 
Q 3047 1584 2836 1778 
Q 2625 1972 2144 2069 
L 1759 2144 
Q 1053 2284 737 2584 
Q 422 2884 422 3419 
Q 422 4038 858 4394 
Q 1294 4750 2059 4750 
Q 2388 4750 2728 4690 
Q 3069 4631 3425 4513 
z
" transform="scale(0.015625)"/>
      <path id="DejaVuSans-13b0" d="M 1831 4863 
L 3431 4863 
L 3431 0 
L 2853 0 
L 2853 4384 
L 1825 4384 
Q 1516 4384 1395 4259 
Q 1275 4134 1275 3809 
L 1275 3500 
L 2222 3500 
L 2222 3053 
L 1275 3053 
L 1275 0 
L 697 0 
L 697 3053 
L 147 3053 
L 147 3500 
L 697 3500 
L 697 3744 
Q 697 4328 969 4595 
Q 1241 4863 1831 4863 
z
" transform="scale(0.015625)"/>
      <path id="DejaVuSans-5a" d="M 269 3500 
L 844 3500 
L 1563 769 
L 2278 3500 
L 2956 3500 
L 3675 769 
L 4391 3500 
L 4966 3500 
L 4050 0 
L 3372 0 
L 2619 2869 
L 1863 0 
L 1184 0 
L 269 3500 
z
" transform="scale(0.015625)"/>
     </defs>
     <use xlink:href="#DejaVuSans-36"/>
     <use xlink:href="#DejaVuSans-5c" transform="translate(63.484375 0)"/>
     <use xlink:href="#DejaVuSans-56" transform="translate(122.671875 0)"/>
     <use xlink:href="#DejaVuSans-57" transform="translate(174.765625 0)"/>
     <use xlink:href="#DejaVuSans-48" transform="translate(213.96875 0)"/>
     <use xlink:href="#DejaVuSans-50" transform="translate(275.5 0)"/>
     <use xlink:href="#DejaVuSans-3" transform="translate(372.90625 0)"/>
     <use xlink:href="#DejaVuSans-13b0" transform="translate(404.6875 0)"/>
     <use xlink:href="#DejaVuSans-52" transform="translate(467.671875 0)"/>
     <use xlink:href="#DejaVuSans-5a" transform="translate(528.859375 0)"/>
    </g>
    <!-- open pathways -->
    <g transform="translate(389.886891 193.129664) scale(0.09 -0.09)">
     <use xlink:href="#DejaVuSans-52"/>
     <use xlink:href="#DejaVuSans-53" transform="translate(61.1875 0)"/>
     <use xlink:href="#DejaVuSans-48" transform="translate(124.671875 0)"/>
     <use xlink:href="#DejaVuSans-51" transform="translate(186.203125 0)"/>
     <use xlink:href="#DejaVuSans-3" transform="translate(249.578125 0)"/>
     <use xlink:href="#DejaVuSans-53" transform="translate(281.359375 0)"/>
     <use xlink:href="#DejaVuSans-44" transform="translate(344.84375 0)"/>
     <use xlink:href="#DejaVuSans-57" transform="translate(406.125 0)"/>
     <use xlink:href="#DejaVuSans-4b" transform="translate(445.328125 0)"/>
     <use xlink:href="#DejaVuSans-5a" transform="translate(508.703125 0)"/>
     <use xlink:href="#DejaVuSans-44" transform="translate(590.484375 0)"/>
     <use xlink:href="#DejaVuSans-5c" transform="translate(651.765625 0)"/>
     <use xlink:href="#DejaVuSans-56" transform="translate(710.953125 0)"/>
    </g>
    <!-- no bulk plug -->
    <g transform="translate(396.378141 203.932125) scale(0.09 -0.09)">
     <defs>
      <path id="DejaVuSans-4e" d="M 581 4863 
L 1159 4863 
L 1159 1991 
L 2875 3500 
L 3609 3500 
L 1753 1863 
L 3688 0 
L 2938 0 
L 1159 1709 
L 1159 0 
L 581 0 
L 581 4863 
z
" transform="scale(0.015625)"/>
     </defs>
     <use xlink:href="#DejaVuSans-51"/>
     <use xlink:href="#DejaVuSans-52" transform="translate(63.375 0)"/>
     <use xlink:href="#DejaVuSans-3" transform="translate(124.5625 0)"/>
     <use xlink:href="#DejaVuSans-45" transform="translate(156.34375 0)"/>
     <use xlink:href="#DejaVuSans-58" transform="translate(219.828125 0)"/>
     <use xlink:href="#DejaVuSans-4f" transform="translate(283.203125 0)"/>
     <use xlink:href="#DejaVuSans-4e" transform="translate(310.984375 0)"/>
     <use xlink:href="#DejaVuSans-3" transform="translate(368.890625 0)"/>
     <use xlink:href="#DejaVuSans-53" transform="translate(400.671875 0)"/>
     <use xlink:href="#DejaVuSans-4f" transform="translate(464.15625 0)"/>
     <use xlink:href="#DejaVuSans-58" transform="translate(491.9375 0)"/>
     <use xlink:href="#DejaVuSans-4a" transform="translate(555.3125 0)"/>
    </g>
   </g>
   <g id="text_6">
    <!-- Coupled envelope + UQ -->
    <g transform="translate(269.940234 282.545227) scale(0.09 -0.09)">
     <defs>
      <path id="DejaVuSans-e" d="M 2944 4013 
L 2944 2272 
L 4684 2272 
L 4684 1741 
L 2944 1741 
L 2944 0 
L 2419 0 
L 2419 1741 
L 678 1741 
L 678 2272 
L 2419 2272 
L 2419 4013 
L 2944 4013 
z
" transform="scale(0.015625)"/>
      <path id="DejaVuSans-38" d="M 556 4666 
L 1191 4666 
L 1191 1831 
Q 1191 1081 1462 751 
Q 1734 422 2344 422 
Q 2950 422 3222 751 
Q 3494 1081 3494 1831 
L 3494 4666 
L 4128 4666 
L 4128 1753 
Q 4128 841 3676 375 
Q 3225 -91 2344 -91 
Q 1459 -91 1007 375 
Q 556 841 556 1753 
L 556 4666 
z
" transform="scale(0.015625)"/>
      <path id="DejaVuSans-34" d="M 2522 4238 
Q 1834 4238 1429 3725 
Q 1025 3213 1025 2328 
Q 1025 1447 1429 934 
Q 1834 422 2522 422 
Q 3209 422 3611 934 
Q 4013 1447 4013 2328 
Q 4013 3213 3611 3725 
Q 3209 4238 2522 4238 
z
M 3406 84 
L 4238 -825 
L 3475 -825 
L 2784 -78 
Q 2681 -84 2626 -87 
Q 2572 -91 2522 -91 
Q 1538 -91 948 567 
Q 359 1225 359 2328 
Q 359 3434 948 4092 
Q 1538 4750 2522 4750 
Q 3503 4750 4090 4092 
Q 4678 3434 4678 2328 
Q 4678 1516 4351 937 
Q 4025 359 3406 84 
z
" transform="scale(0.015625)"/>
     </defs>
     <use xlink:href="#DejaVuSans-26"/>
     <use xlink:href="#DejaVuSans-52" transform="translate(69.828125 0)"/>
     <use xlink:href="#DejaVuSans-58" transform="translate(131.015625 0)"/>
     <use xlink:href="#DejaVuSans-53" transform="translate(194.390625 0)"/>
     <use xlink:href="#DejaVuSans-4f" transform="translate(257.875 0)"/>
     <use xlink:href="#DejaVuSans-48" transform="translate(285.65625 0)"/>
     <use xlink:href="#DejaVuSans-47" transform="translate(347.1875 0)"/>
     <use xlink:href="#DejaVuSans-3" transform="translate(410.671875 0)"/>
     <use xlink:href="#DejaVuSans-48" transform="translate(442.453125 0)"/>
     <use xlink:href="#DejaVuSans-51" transform="translate(503.984375 0)"/>
     <use xlink:href="#DejaVuSans-59" transform="translate(567.359375 0)"/>
     <use xlink:href="#DejaVuSans-48" transform="translate(626.546875 0)"/>
     <use xlink:href="#DejaVuSans-4f" transform="translate(688.078125 0)"/>
     <use xlink:href="#DejaVuSans-52" transform="translate(715.859375 0)"/>
     <use xlink:href="#DejaVuSans-53" transform="translate(777.046875 0)"/>
     <use xlink:href="#DejaVuSans-48" transform="translate(840.53125 0)"/>
     <use xlink:href="#DejaVuSans-3" transform="translate(902.0625 0)"/>
     <use xlink:href="#DejaVuSans-e" transform="translate(933.84375 0)"/>
     <use xlink:href="#DejaVuSans-3" transform="translate(1017.640625 0)"/>
     <use xlink:href="#DejaVuSans-38" transform="translate(1049.421875 0)"/>
     <use xlink:href="#DejaVuSans-34" transform="translate(1122.609375 0)"/>
    </g>
    <!-- PASS / MARGINAL / FAIL / UNKNOWN -->
    <g transform="translate(242.374922 293.346984) scale(0.09 -0.09)">
     <defs>
      <path id="DejaVuSans-24" d="M 2188 4044 
L 1331 1722 
L 3047 1722 
L 2188 4044 
z
M 1831 4666 
L 2547 4666 
L 4325 0 
L 3669 0 
L 3244 1197 
L 1141 1197 
L 716 0 
L 50 0 
L 1831 4666 
z
" transform="scale(0.015625)"/>
      <path id="DejaVuSans-12" d="M 1625 4666 
L 2156 4666 
L 531 -594 
L 0 -594 
L 1625 4666 
z
" transform="scale(0.015625)"/>
      <path id="DejaVuSans-35" d="M 2841 2188 
Q 3044 2119 3236 1894 
Q 3428 1669 3622 1275 
L 4263 0 
L 3584 0 
L 2988 1197 
Q 2756 1666 2539 1819 
Q 2322 1972 1947 1972 
L 1259 1972 
L 1259 0 
L 628 0 
L 628 4666 
L 2053 4666 
Q 2853 4666 3247 4331 
Q 3641 3997 3641 3322 
Q 3641 2881 3436 2590 
Q 3231 2300 2841 2188 
z
M 1259 4147 
L 1259 2491 
L 2053 2491 
Q 2509 2491 2742 2702 
Q 2975 2913 2975 3322 
Q 2975 3731 2742 3939 
Q 2509 4147 2053 4147 
L 1259 4147 
z
" transform="scale(0.015625)"/>
      <path id="DejaVuSans-2a" d="M 3809 666 
L 3809 1919 
L 2778 1919 
L 2778 2438 
L 4434 2438 
L 4434 434 
Q 4069 175 3628 42 
Q 3188 -91 2688 -91 
Q 1594 -91 976 548 
Q 359 1188 359 2328 
Q 359 3472 976 4111 
Q 1594 4750 2688 4750 
Q 3144 4750 3555 4637 
Q 3966 4525 4313 4306 
L 4313 3634 
Q 3963 3931 3569 4081 
Q 3175 4231 2741 4231 
Q 1884 4231 1454 3753 
Q 1025 3275 1025 2328 
Q 1025 1384 1454 906 
Q 1884 428 2741 428 
Q 3075 428 3337 486 
Q 3600 544 3809 666 
z
" transform="scale(0.015625)"/>
      <path id="DejaVuSans-2c" d="M 628 4666 
L 1259 4666 
L 1259 0 
L 628 0 
L 628 4666 
z
" transform="scale(0.015625)"/>
      <path id="DejaVuSans-31" d="M 628 4666 
L 1478 4666 
L 3547 763 
L 3547 4666 
L 4159 4666 
L 4159 0 
L 3309 0 
L 1241 3903 
L 1241 0 
L 628 0 
L 628 4666 
z
" transform="scale(0.015625)"/>
      <path id="DejaVuSans-2f" d="M 628 4666 
L 1259 4666 
L 1259 531 
L 3531 531 
L 3531 0 
L 628 0 
L 628 4666 
z
" transform="scale(0.015625)"/>
      <path id="DejaVuSans-29" d="M 628 4666 
L 3309 4666 
L 3309 4134 
L 1259 4134 
L 1259 2759 
L 3109 2759 
L 3109 2228 
L 1259 2228 
L 1259 0 
L 628 0 
L 628 4666 
z
" transform="scale(0.015625)"/>
      <path id="DejaVuSans-2e" d="M 628 4666 
L 1259 4666 
L 1259 2694 
L 3353 4666 
L 4166 4666 
L 1850 2491 
L 4331 0 
L 3500 0 
L 1259 2247 
L 1259 0 
L 628 0 
L 628 4666 
z
" transform="scale(0.015625)"/>
      <path id="DejaVuSans-32" d="M 2522 4238 
Q 1834 4238 1429 3725 
Q 1025 3213 1025 2328 
Q 1025 1447 1429 934 
Q 1834 422 2522 422 
Q 3209 422 3611 934 
Q 4013 1447 4013 2328 
Q 4013 3213 3611 3725 
Q 3209 4238 2522 4238 
z
M 2522 4750 
Q 3503 4750 4090 4092 
Q 4678 3434 4678 2328 
Q 4678 1225 4090 567 
Q 3503 -91 2522 -91 
Q 1538 -91 948 565 
Q 359 1222 359 2328 
Q 359 3434 948 4092 
Q 1538 4750 2522 4750 
z
" transform="scale(0.015625)"/>
      <path id="DejaVuSans-3a" d="M 213 4666 
L 850 4666 
L 1831 722 
L 2809 4666 
L 3519 4666 
L 4500 722 
L 5478 4666 
L 6119 4666 
L 4947 0 
L 4153 0 
L 3169 4050 
L 2175 0 
L 1381 0 
L 213 4666 
z
" transform="scale(0.015625)"/>
     </defs>
     <use xlink:href="#DejaVuSans-33"/>
     <use xlink:href="#DejaVuSans-24" transform="translate(53.90625 0)"/>
     <use xlink:href="#DejaVuSans-36" transform="translate(122.3125 0)"/>
     <use xlink:href="#DejaVuSans-36" transform="translate(185.796875 0)"/>
     <use xlink:href="#DejaVuSans-3" transform="translate(249.28125 0)"/>
     <use xlink:href="#DejaVuSans-12" transform="translate(281.0625 0)"/>
     <use xlink:href="#DejaVuSans-3" transform="translate(314.75 0)"/>
     <use xlink:href="#DejaVuSans-30" transform="translate(346.53125 0)"/>
     <use xlink:href="#DejaVuSans-24" transform="translate(432.8125 0)"/>
     <use xlink:href="#DejaVuSans-35" transform="translate(501.21875 0)"/>
     <use xlink:href="#DejaVuSans-2a" transform="translate(570.703125 0)"/>
     <use xlink:href="#DejaVuSans-2c" transform="translate(648.1875 0)"/>
     <use xlink:href="#DejaVuSans-31" transform="translate(677.6875 0)"/>
     <use xlink:href="#DejaVuSans-24" transform="translate(752.5 0)"/>
     <use xlink:href="#DejaVuSans-2f" transform="translate(820.90625 0)"/>
     <use xlink:href="#DejaVuSans-3" transform="translate(876.625 0)"/>
     <use xlink:href="#DejaVuSans-12" transform="translate(908.40625 0)"/>
     <use xlink:href="#DejaVuSans-3" transform="translate(942.09375 0)"/>
     <use xlink:href="#DejaVuSans-29" transform="translate(973.875 0)"/>
     <use xlink:href="#DejaVuSans-24" transform="translate(1022.21875 0)"/>
     <use xlink:href="#DejaVuSans-2c" transform="translate(1090.625 0)"/>
     <use xlink:href="#DejaVuSans-2f" transform="translate(1120.125 0)"/>
     <use xlink:href="#DejaVuSans-3" transform="translate(1175.84375 0)"/>
     <use xlink:href="#DejaVuSans-12" transform="translate(1207.625 0)"/>
     <use xlink:href="#DejaVuSans-3" transform="translate(1241.3125 0)"/>
     <use xlink:href="#DejaVuSans-38" transform="translate(1273.09375 0)"/>
     <use xlink:href="#DejaVuSans-31" transform="translate(1346.28125 0)"/>
     <use xlink:href="#DejaVuSans-2e" transform="translate(1421.09375 0)"/>
     <use xlink:href="#DejaVuSans-31" transform="translate(1486.671875 0)"/>
     <use xlink:href="#DejaVuSans-32" transform="translate(1561.484375 0)"/>
     <use xlink:href="#DejaVuSans-3a" transform="translate(1640.203125 0)"/>
     <use xlink:href="#DejaVuSans-31" transform="translate(1739.078125 0)"/>
    </g>
    <!-- UNKNOWN is never recast as PASS -->
    <g transform="translate(245.836406 304.149445) scale(0.09 -0.09)">
     <use xlink:href="#DejaVuSans-38"/>
     <use xlink:href="#DejaVuSans-31" transform="translate(73.1875 0)"/>
     <use xlink:href="#DejaVuSans-2e" transform="translate(148 0)"/>
     <use xlink:href="#DejaVuSans-31" transform="translate(213.578125 0)"/>
     <use xlink:href="#DejaVuSans-32" transform="translate(288.390625 0)"/>
     <use xlink:href="#DejaVuSans-3a" transform="translate(367.109375 0)"/>
     <use xlink:href="#DejaVuSans-31" transform="translate(465.984375 0)"/>
     <use xlink:href="#DejaVuSans-3" transform="translate(540.796875 0)"/>
     <use xlink:href="#DejaVuSans-4c" transform="translate(572.578125 0)"/>
     <use xlink:href="#DejaVuSans-56" transform="translate(600.359375 0)"/>
     <use xlink:href="#DejaVuSans-3" transform="translate(652.453125 0)"/>
     <use xlink:href="#DejaVuSans-51" transform="translate(684.234375 0)"/>
     <use xlink:href="#DejaVuSans-48" transform="translate(747.609375 0)"/>
     <use xlink:href="#DejaVuSans-59" transform="translate(809.140625 0)"/>
     <use xlink:href="#DejaVuSans-48" transform="translate(868.328125 0)"/>
     <use xlink:href="#DejaVuSans-55" transform="translate(929.859375 0)"/>
     <use xlink:href="#DejaVuSans-3" transform="translate(970.96875 0)"/>
     <use xlink:href="#DejaVuSans-55" transform="translate(1002.75 0)"/>
     <use xlink:href="#DejaVuSans-48" transform="translate(1041.65625 0)"/>
     <use xlink:href="#DejaVuSans-46" transform="translate(1103.1875 0)"/>
     <use xlink:href="#DejaVuSans-44" transform="translate(1158.171875 0)"/>
     <use xlink:href="#DejaVuSans-56" transform="translate(1219.453125 0)"/>
     <use xlink:href="#DejaVuSans-57" transform="translate(1271.546875 0)"/>
     <use xlink:href="#DejaVuSans-3" transform="translate(1310.75 0)"/>
     <use xlink:href="#DejaVuSans-44" transform="translate(1342.53125 0)"/>
     <use xlink:href="#DejaVuSans-56" transform="translate(1403.8125 0)"/>
     <use xlink:href="#DejaVuSans-3" transform="translate(1455.90625 0)"/>
     <use xlink:href="#DejaVuSans-33" transform="translate(1487.6875 0)"/>
     <use xlink:href="#DejaVuSans-24" transform="translate(1541.59375 0)"/>
     <use xlink:href="#DejaVuSans-36" transform="translate(1610 0)"/>
     <use xlink:href="#DejaVuSans-36" transform="translate(1673.484375 0)"/>
    </g>
   </g>
   <g id="text_7">
    <!-- Challenge requirement architecture (Innocentive public statement) -->
    <g transform="translate(122.415 19.917188) scale(0.12 -0.12)">
     <defs>
      <path id="DejaVuSans-b" d="M 1984 4856 
Q 1566 4138 1362 3434 
Q 1159 2731 1159 2009 
Q 1159 1288 1364 580 
Q 1569 -128 1984 -844 
L 1484 -844 
Q 1016 -109 783 600 
Q 550 1309 550 2009 
Q 550 2706 781 3412 
Q 1013 4119 1484 4856 
L 1984 4856 
z
" transform="scale(0.015625)"/>
      <path id="DejaVuSans-c" d="M 513 4856 
L 1013 4856 
Q 1481 4119 1714 3412 
Q 1947 2706 1947 2009 
Q 1947 1309 1714 600 
Q 1481 -109 1013 -844 
L 513 -844 
Q 928 -128 1133 580 
Q 1338 1288 1338 2009 
Q 1338 2731 1133 3434 
Q 928 4138 513 4856 
z
" transform="scale(0.015625)"/>
     </defs>
     <use xlink:href="#DejaVuSans-26"/>
     <use xlink:href="#DejaVuSans-4b" transform="translate(69.828125 0)"/>
     <use xlink:href="#DejaVuSans-44" transform="translate(133.203125 0)"/>
     <use xlink:href="#DejaVuSans-4f" transform="translate(194.484375 0)"/>
     <use xlink:href="#DejaVuSans-4f" transform="translate(222.265625 0)"/>
     <use xlink:href="#DejaVuSans-48" transform="translate(250.046875 0)"/>
     <use xlink:href="#DejaVuSans-51" transform="translate(311.578125 0)"/>
     <use xlink:href="#DejaVuSans-4a" transform="translate(374.953125 0)"/>
     <use xlink:href="#DejaVuSans-48" transform="translate(438.4375 0)"/>
     <use xlink:href="#DejaVuSans-3" transform="translate(499.96875 0)"/>
     <use xlink:href="#DejaVuSans-55" transform="translate(531.75 0)"/>
     <use xlink:href="#DejaVuSans-48" transform="translate(570.65625 0)"/>
     <use xlink:href="#DejaVuSans-54" transform="translate(632.1875 0)"/>
     <use xlink:href="#DejaVuSans-58" transform="translate(695.671875 0)"/>
     <use xlink:href="#DejaVuSans-4c" transform="translate(759.046875 0)"/>
     <use xlink:href="#DejaVuSans-55" transform="translate(786.828125 0)"/>
     <use xlink:href="#DejaVuSans-48" transform="translate(825.734375 0)"/>
     <use xlink:href="#DejaVuSans-50" transform="translate(887.265625 0)"/>
     <use xlink:href="#DejaVuSans-48" transform="translate(984.671875 0)"/>
     <use xlink:href="#DejaVuSans-51" transform="translate(1046.203125 0)"/>
     <use xlink:href="#DejaVuSans-57" transform="translate(1109.578125 0)"/>
     <use xlink:href="#DejaVuSans-3" transform="translate(1148.78125 0)"/>
     <use xlink:href="#DejaVuSans-44" transform="translate(1180.5625 0)"/>
     <use xlink:href="#DejaVuSans-55" transform="translate(1241.84375 0)"/>
     <use xlink:href="#DejaVuSans-46" transform="translate(1280.75 0)"/>
     <use xlink:href="#DejaVuSans-4b" transform="translate(1335.734375 0)"/>
     <use xlink:href="#DejaVuSans-4c" transform="translate(1399.109375 0)"/>
     <use xlink:href="#DejaVuSans-57" transform="translate(1426.890625 0)"/>
     <use xlink:href="#DejaVuSans-48" transform="translate(1466.09375 0)"/>
     <use xlink:href="#DejaVuSans-46" transform="translate(1527.625 0)"/>
     <use xlink:href="#DejaVuSans-57" transform="translate(1582.609375 0)"/>
     <use xlink:href="#DejaVuSans-58" transform="translate(1621.8125 0)"/>
     <use xlink:href="#DejaVuSans-55" transform="translate(1685.1875 0)"/>
     <use xlink:href="#DejaVuSans-48" transform="translate(1724.09375 0)"/>
     <use xlink:href="#DejaVuSans-3" transform="translate(1785.625 0)"/>
     <use xlink:href="#DejaVuSans-b" transform="translate(1817.40625 0)"/>
     <use xlink:href="#DejaVuSans-2c" transform="translate(1856.421875 0)"/>
     <use xlink:href="#DejaVuSans-51" transform="translate(1885.921875 0)"/>
     <use xlink:href="#DejaVuSans-51" transform="translate(1949.296875 0)"/>
     <use xlink:href="#DejaVuSans-52" transform="translate(2012.671875 0)"/>
     <use xlink:href="#DejaVuSans-46" transform="translate(2073.859375 0)"/>
     <use xlink:href="#DejaVuSans-48" transform="translate(2128.84375 0)"/>
     <use xlink:href="#DejaVuSans-51" transform="translate(2190.375 0)"/>
     <use xlink:href="#DejaVuSans-57" transform="translate(2253.75 0)"/>
     <use xlink:href="#DejaVuSans-4c" transform="translate(2292.953125 0)"/>
     <use xlink:href="#DejaVuSans-59" transform="translate(2320.734375 0)"/>
     <use xlink:href="#DejaVuSans-48" transform="translate(2379.921875 0)"/>
     <use xlink:href="#DejaVuSans-3" transform="translate(2441.453125 0)"/>
     <use xlink:href="#DejaVuSans-53" transform="translate(2473.234375 0)"/>
     <use xlink:href="#DejaVuSans-58" transform="translate(2536.71875 0)"/>
     <use xlink:href="#DejaVuSans-45" transform="translate(2600.09375 0)"/>
     <use xlink:href="#DejaVuSans-4f" transform="translate(2663.578125 0)"/>
     <use xlink:href="#DejaVuSans-4c" transform="translate(2691.359375 0)"/>
     <use xlink:href="#DejaVuSans-46" transform="translate(2719.140625 0)"/>
     <use xlink:href="#DejaVuSans-3" transform="translate(2774.125 0)"/>
     <use xlink:href="#DejaVuSans-56" transform="translate(2805.90625 0)"/>
     <use xlink:href="#DejaVuSans-57" transform="translate(2858 0)"/>
     <use xlink:href="#DejaVuSans-44" transform="translate(2897.203125 0)"/>
     <use xlink:href="#DejaVuSans-57" transform="translate(2958.484375 0)"/>
     <use xlink:href="#DejaVuSans-48" transform="translate(2997.6875 0)"/>
     <use xlink:href="#DejaVuSans-50" transform="translate(3059.21875 0)"/>
     <use xlink:href="#DejaVuSans-48" transform="translate(3156.625 0)"/>
     <use xlink:href="#DejaVuSans-51" transform="translate(3218.15625 0)"/>
     <use xlink:href="#DejaVuSans-57" transform="translate(3281.53125 0)"/>
     <use xlink:href="#DejaVuSans-c" transform="translate(3320.734375 0)"/>
    </g>
   </g>
  </g>
 </g>
 <defs>
  <clipPath id="pcc10ce72fa">
   <rect x="10.8" y="25.917188" width="626.4" height="323.282812"/>
  </clipPath>
 </defs>
</svg>
